<?xml version="1.0" standalone="no"?>
<!DOCTYPE svg PUBLIC "-//W3C//DTD SVG 20010904//EN"
 "http://www.w3.org/TR/2001/REC-SVG-20010904/DTD/svg10.dtd">
<svg version="1.0" xmlns="http://www.w3.org/2000/svg"
 width="260.000000pt" height="260.000000pt" viewBox="0 0 260.000000 260.000000"
 preserveAspectRatio="xMidYMid meet">
<metadata>
Created by potrace 1.11, written by Peter Selinger 2001-2013
</metadata>
<g transform="translate(0.000000,260.000000) scale(0.100000,-0.100000)"
fill="#000000" stroke="none">
<path d="M1135 2540 c-4 -6 -17 -8 -30 -6 -14 3 -27 1 -30 -4 -3 -5 -12 -7
-20 -3 -8 3 -15 1 -15 -4 0 -5 -8 -9 -17 -9 -35 -1 -86 -13 -92 -21 -3 -4 -10
-8 -16 -9 -27 -2 -75 -17 -75 -24 0 -3 -6 -7 -12 -7 -14 0 -150 -63 -158 -73
-3 -4 -24 -17 -47 -30 -24 -13 -43 -27 -43 -32 0 -4 -5 -8 -10 -8 -6 0 -16 -5
-23 -10 -89 -75 -167 -151 -167 -162 0 -5 -4 -6 -10 -3 -6 3 -10 1 -10 -4 0
-6 -8 -19 -17 -29 -25 -26 -43 -51 -78 -102 -16 -25 -34 -48 -38 -51 -5 -3 -7
-9 -5 -12 1 -4 -4 -15 -13 -25 -8 -10 -14 -23 -11 -30 2 -7 -1 -12 -6 -12 -9
0 -19 -19 -27 -50 -1 -3 -7 -17 -13 -32 -26 -60 -35 -83 -38 -93 -9 -25 -43
-159 -42 -164 0 -3 -1 -8 -2 -11 -9 -23 -12 -66 -16 -198 -4 -113 -2 -152 7
-147 8 6 8 2 0 -14 -7 -11 -8 -21 -4 -21 4 0 9 -17 10 -38 3 -45 6 -63 16 -78
3 -6 8 -25 9 -43 1 -17 6 -31 10 -31 4 0 8 -9 8 -19 0 -11 5 -32 12 -48 6 -15
12 -31 13 -35 2 -5 4 -11 5 -15 1 -5 2 -11 1 -15 0 -5 3 -8 9 -8 6 0 9 -3 8
-7 -3 -13 66 -147 79 -156 7 -4 13 -14 13 -21 0 -8 7 -19 15 -26 8 -7 12 -16
9 -21 -3 -5 3 -9 12 -9 10 0 15 -3 11 -6 -3 -3 5 -18 18 -32 13 -14 21 -30 18
-36 -3 -6 -3 -8 1 -4 4 3 24 -12 44 -35 53 -60 60 -67 65 -67 3 0 23 -18 45
-39 22 -22 43 -37 46 -34 3 4 6 -1 6 -11 0 -9 4 -14 10 -11 5 3 21 -5 35 -19
14 -15 32 -26 40 -26 8 0 15 -4 15 -10 0 -5 7 -10 15 -10 8 0 15 -5 15 -11 0
-5 4 -8 9 -4 5 3 13 1 16 -5 4 -6 24 -18 46 -27 21 -8 39 -19 39 -25 0 -5 4
-7 8 -4 5 3 20 -1 35 -9 15 -8 27 -12 27 -9 0 3 10 -1 23 -8 12 -7 24 -13 27
-13 32 -8 68 -18 80 -22 8 -4 19 -5 24 -4 4 1 13 -2 20 -7 6 -4 26 -9 45 -11
19 -2 44 -7 56 -11 34 -13 319 -10 328 4 5 8 10 7 17 -4 5 -8 10 -10 10 -5 0
6 16 11 37 12 20 1 39 6 42 10 3 4 15 8 26 7 11 0 26 4 33 9 6 5 12 6 12 2 0
-4 7 -2 15 5 8 6 19 9 25 5 5 -3 10 -1 10 5 0 6 4 9 9 6 4 -3 26 3 47 13 21
11 42 17 46 14 5 -2 8 0 8 5 0 6 7 13 16 16 10 4 13 2 8 -7 -6 -9 -5 -9 8 0 8
7 19 9 23 5 5 -4 5 -2 2 5 -4 6 4 15 21 22 47 19 163 92 201 127 14 13 32 24
39 24 7 0 10 5 7 10 -3 6 -3 10 2 10 11 0 111 98 143 140 14 17 30 37 35 44
22 23 80 119 77 128 -1 4 1 7 5 6 5 -2 9 0 10 5 2 4 14 28 27 55 42 80 76 163
65 156 -6 -4 -4 4 4 17 15 23 33 87 29 102 -1 4 2 7 6 7 4 0 7 12 7 28 -1 15
1 32 4 37 11 20 13 43 17 190 4 151 -6 233 -47 378 -7 23 -12 45 -11 50 1 4
-3 7 -9 7 -5 0 -7 5 -4 10 3 6 1 10 -6 10 -7 0 -10 3 -6 6 7 8 -23 86 -37 96
-6 4 -7 8 -3 8 11 0 -34 80 -45 80 -5 0 -6 4 -3 10 3 5 -3 20 -14 32 -12 12
-21 26 -21 30 0 9 -11 24 -47 63 -13 13 -23 28 -23 34 0 5 -12 19 -26 30 -15
12 -24 21 -20 21 4 0 -12 18 -36 40 -96 90 -158 142 -158 135 0 -3 -10 3 -22
14 -11 11 -24 18 -28 16 -5 -3 -10 2 -14 10 -3 8 -12 15 -21 15 -8 0 -15 5
-15 11 0 5 -4 8 -9 4 -6 -3 -13 1 -18 9 -4 8 -10 15 -13 15 -3 0 -21 7 -40 15
-19 8 -39 15 -45 16 -5 1 -19 9 -30 16 -11 8 -29 14 -41 14 -12 0 -24 4 -26
10 -1 5 -15 11 -30 12 -16 1 -28 5 -28 8 0 3 -8 7 -17 8 -33 3 -48 7 -62 16
-11 7 -12 6 -6 -5 7 -12 6 -12 -7 -1 -9 7 -34 14 -55 16 -22 1 -44 5 -49 8
-16 10 -313 8 -319 -2z"/>
</g>
</svg>
